<svg width="24" height="24" viewBox="0 0 24 24" fill="none" xmlns="http://www.w3.org/2000/svg">
<path d="M16.5653 18.0869H14.6087V8.30405C14.6087 7.94385 14.3168 7.65186 13.9566 7.65186H12.6522V7.10491C13.8044 6.69623 14.305 5.34189 13.6957 4.2849C13.6956 4.28482 13.6956 4.28474 13.6955 4.28462L12.5648 2.32571C12.3139 1.89106 11.6855 1.8918 11.4351 2.32571L10.3045 4.28466C9.69365 5.34322 10.1977 6.69698 11.3478 7.10487V7.65182H10.0434C9.68322 7.65182 9.39123 7.94382 9.39123 8.30401C9.39123 9.38288 8.51353 10.2606 7.43466 10.2606C7.07446 10.2606 6.78247 10.5526 6.78247 10.9128V13.5215C6.78247 13.8817 7.07446 14.1737 7.43466 14.1737H9.39123V18.0869H7.43466C7.07446 18.0869 6.78247 18.3789 6.78247 18.7391V21.3478C6.78247 21.708 7.07446 22 7.43466 22H16.5653C16.9255 22 17.2175 21.708 17.2175 21.3478V18.7391C17.2175 18.3789 16.9255 18.0869 16.5653 18.0869ZM11.4342 4.93662L12 3.95638L12.5656 4.93634C12.8143 5.36783 12.5012 5.91268 11.9999 5.91268C11.4982 5.91268 11.1858 5.36717 11.4342 4.93662ZM15.9131 20.6957H8.08685V19.3913H10.0434C10.4036 19.3913 10.6956 19.0993 10.6956 18.7391V13.5216C10.6956 13.1614 10.4036 12.8694 10.0434 12.8694H8.08685V11.4995C9.36264 11.2395 10.3701 10.232 10.6301 8.95624H13.3044V18.7391C13.3044 19.0993 13.5964 19.3913 13.9566 19.3913H15.9131V20.6957Z" fill="black"/>
</svg>
