<svg width="24" height="24" viewBox="0 0 24 24" fill="none" xmlns="http://www.w3.org/2000/svg">
<path fill-rule="evenodd" clip-rule="evenodd" d="M12 2C7.175 2 3.25 5.925 3.25 10.75C3.25 15.28 6.92375 22 12 22C17.0762 22 20.75 15.28 20.75 10.75C20.75 5.925 16.8237 2 12 2ZM18.2438 8.78625C18.2213 8.6225 18.1325 8.475 18 8.375C17.8688 8.275 17.7025 8.235 17.5375 8.25625C14.7838 8.65 12.8625 11.21 13.2563 13.9625C13.3013 14.275 13.5688 14.5 13.8738 14.5C13.9025 14.5 13.9338 14.4975 13.9625 14.4937C15.2963 14.3037 16.4775 13.6037 17.285 12.5262C18.0938 11.4487 18.4338 10.1212 18.2438 8.78625ZM5.75625 8.78625C5.805 8.445 6.12625 8.21 6.46375 8.25625C7.7975 8.4475 8.9775 9.145 9.785 10.2225C10.5937 11.3012 10.9337 12.6287 10.7437 13.9625C10.6987 14.275 10.4312 14.5 10.125 14.5C10.0962 14.5 10.0662 14.4975 10.0375 14.4937C8.70375 14.3025 7.5225 13.6037 6.715 12.5262C5.90625 11.4487 5.56625 10.12 5.75625 8.78625Z" fill="black"/>
</svg>
