<svg width="24" height="24" viewBox="0 0 24 24" fill="none" xmlns="http://www.w3.org/2000/svg">
<path d="M8.20809 11.4809C8.20966 11.4712 8.21123 11.4616 8.2127 11.452L5.34231 12.0734L2.29871 8.68619L3.17035 7.90294L5.75922 10.7841L8.65751 10.1567C8.82641 9.85568 9.03431 9.58084 9.27415 9.33818L7.21493 8.83083L5.41082 5.50176L6.44121 4.94344L7.9984 7.81696L10.2937 8.38244C9.85587 8.02575 9.57606 7.48251 9.57606 6.8738C9.57606 6.41888 9.73267 6.00079 9.99435 5.6695C9.62314 5.34696 9.38771 4.872 9.38771 4.34278C9.38771 3.37352 10.1763 2.58496 11.1455 2.58496H11.2581V3.75684H11.1455C10.8224 3.75684 10.5596 4.01969 10.5596 4.34278C10.5596 4.66586 10.8224 4.92872 11.1455 4.92872H12.8545C13.1776 4.92872 13.4404 4.66586 13.4404 4.34278C13.4404 4.01969 13.1776 3.75684 12.8545 3.75684H12.7419V2.58496H12.8545C13.8237 2.58496 14.6123 3.37352 14.6123 4.34278C14.6123 4.872 14.3769 5.34696 14.0056 5.6695C14.2673 6.00075 14.4239 6.41888 14.4239 6.8738C14.4239 7.48255 14.1441 8.02575 13.7063 8.38244L16.0016 7.81696L17.5588 4.94344L18.5891 5.50176L16.785 8.83083L14.7258 9.33818C14.9656 9.58084 15.1735 9.85568 15.3424 10.1567L18.2407 10.7841L20.8296 7.90294L21.7012 8.68619L18.6576 12.0734L15.7872 11.452C15.7887 11.4617 15.7903 11.4713 15.7919 11.481C15.7946 11.4976 15.7973 11.5143 15.7995 11.5311L15.8517 11.9278C15.599 12.2951 15.1434 12.6315 14.549 12.8853C13.8131 13.1995 12.9317 13.3655 12 13.3655C11.0682 13.3655 10.1868 13.1995 9.45099 12.8853C8.85653 12.6315 8.40091 12.2951 8.14829 11.9278L8.20044 11.5311C8.20264 11.5142 8.20537 11.4975 8.20809 11.4809Z" fill="black"/>
<path d="M21.5981 14.2648L22 15.3657L18.8898 16.5011L16.2653 15.0733L16.4344 16.3595C16.7866 19.0381 14.7017 21.4151 12 21.4151C9.2983 21.4151 7.21337 19.0381 7.5656 16.3595L7.7347 15.0733L5.11016 16.5011L2 15.3657L2.40188 14.2648L5.01501 15.2188L7.92365 13.6365L7.95747 13.3792C8.25439 13.6001 8.60048 13.7964 8.99087 13.9631C9.87095 14.3388 10.9115 14.5374 12 14.5374C13.0885 14.5374 14.1291 14.3388 15.0091 13.9631C15.3995 13.7964 15.7456 13.6001 16.0425 13.3792L16.0764 13.6365L18.985 15.2188L21.5981 14.2648Z" fill="black"/>
</svg>
