<svg width="24" height="24" viewBox="0 0 24 24" fill="none" xmlns="http://www.w3.org/2000/svg">
<path fill-rule="evenodd" clip-rule="evenodd" d="M9.13358 17.8762C8.89917 18.1106 8.58128 18.2422 8.24982 18.2422C7.91836 18.2422 7.60047 18.1106 7.36606 17.8762L2.36599 12.8762C2.13165 12.6418 2 12.3239 2 11.9924C2 11.661 2.13165 11.3431 2.36599 11.1087L7.36606 6.10859C7.60181 5.88088 7.91757 5.75489 8.24532 5.75774C8.57307 5.76059 8.88659 5.89205 9.11835 6.12381C9.35011 6.35558 9.48158 6.6691 9.48443 6.99685C9.48727 7.3246 9.36128 7.64035 9.13358 7.87611L6.26729 10.7424H20.75C21.0815 10.7424 21.3995 10.8741 21.6339 11.1085C21.8683 11.3429 22 11.6609 22 11.9924C22 12.3239 21.8683 12.6419 21.6339 12.8763C21.3995 13.1107 21.0815 13.2424 20.75 13.2424H6.26729L9.13358 16.1087C9.36792 16.3431 9.49957 16.661 9.49957 16.9925C9.49957 17.3239 9.36792 17.6418 9.13358 17.8762Z" fill="black"/>
</svg>
