<svg width="24" height="24" viewBox="0 0 24 24" fill="none" xmlns="http://www.w3.org/2000/svg">
<path d="M21.8185 20.9417L3.05841 2.18174C2.8811 2.00428 2.61453 1.95118 2.38275 2.04731C2.15112 2.14329 2.00006 2.36927 2.00006 2.62012V21.38C2.00006 21.7224 2.27762 22 2.62003 22H21.3801C21.6308 22 21.8569 21.8489 21.9528 21.6173C22.0487 21.3857 21.9958 21.119 21.8185 20.9417ZM15.2683 20.7601V19.7257C15.2683 19.3833 14.9908 19.1057 14.6484 19.1057C14.3061 19.1057 14.0284 19.3833 14.0284 19.7257V20.7601H12.5884V20.1012C12.5884 19.7589 12.3109 19.4812 11.9685 19.4812C11.6261 19.4812 11.3485 19.7589 11.3485 20.1012V20.7601H9.90838V19.7257C9.90838 19.3833 9.63083 19.1057 9.28842 19.1057C8.94601 19.1057 8.66845 19.3833 8.66845 19.7257V20.7601H7.22848V20.1012C7.22848 19.7589 6.95077 19.4812 6.60852 19.4812C6.26611 19.4812 5.9884 19.7589 5.9884 20.1012V20.7601H3.24014V18.0117H3.89886C4.24127 18.0117 4.51883 17.7341 4.51883 17.3917C4.51883 17.0493 4.24127 16.7717 3.89886 16.7717H3.24014V15.3316H4.27438C4.61679 15.3316 4.8945 15.054 4.8945 14.7116C4.8945 14.3692 4.61679 14.0917 4.27438 14.0917H3.24014V12.6517H3.89886C4.24127 12.6517 4.51883 12.3741 4.51883 12.0317C4.51883 11.6893 4.24127 11.4118 3.89886 11.4118H3.24014V9.97165H4.27438C4.61679 9.97165 4.8945 9.6941 4.8945 9.35169C4.8945 9.00928 4.61679 8.73173 4.27438 8.73173H3.24014V4.11686L19.8832 20.7601H15.2683Z" fill="black"/>
<path d="M6.58564 18.0117H12.2137C12.4644 18.0117 12.6905 17.8606 12.7864 17.629C12.8823 17.3972 12.8294 17.1307 12.6519 16.9533L7.02403 11.3253C6.84672 11.148 6.58 11.095 6.34837 11.191C6.11674 11.287 5.96568 11.513 5.96568 11.7637V17.3917C5.96568 17.7341 6.24323 18.0117 6.58564 18.0117ZM7.20561 13.2606L10.7168 16.7718H7.20561V13.2606Z" fill="black"/>
</svg>
