<svg width="24" height="24" viewBox="0 0 24 24" fill="none" xmlns="http://www.w3.org/2000/svg">
<path d="M12.9374 2C8.8012 2 5.43745 5.36375 5.43745 9.5V10.6025L3.6287 14.22C3.5312 14.4137 3.54245 14.6438 3.6562 14.8275C3.76995 15.0113 3.9712 15.125 4.18745 15.125H5.43745V18.135C5.43745 18.5025 5.59745 18.8487 5.8787 19.0863C6.15995 19.3237 6.52495 19.4275 6.88995 19.3662L9.18745 18.9862V21.375C9.18745 21.5588 9.26745 21.7337 9.4087 21.8512C9.52245 21.9475 9.66495 22 9.81245 22C9.8462 22 9.8812 21.9975 9.91495 21.9912L17.4149 20.7412C17.7162 20.6912 17.9374 20.4312 17.9374 20.125V16.2737C17.9374 15.4037 18.3649 14.7063 18.7237 14.2725C19.8287 12.9375 20.4374 11.2425 20.4374 9.5C20.4374 5.36375 17.0737 2 12.9374 2Z" fill="black"/>
</svg>
