<svg width="95" height="35" viewBox="0 0 95 35" fill="none" xmlns="http://www.w3.org/2000/svg">
<path d="M82.5499 6.38066V0.00476114H65.196L62.3421 21.3053L59.518 0.00486458H53.2599L53.961 5.68855C53.2381 4.23252 50.6759 0.00486458 45.0374 0.00486458C45.0002 0.00238059 38.7708 0.00486458 38.7708 0.00486458L38.7468 31.0521L34.1854 0.00486458L25.9894 0L21.2705 32.1692L21.273 0.00465769H13.4289L10.6011 18.0742L7.84662 0.00486458H0V34.9781H6.17906V18.121L8.98978 34.9776H12.2748L15.046 18.121V34.9776H26.9582L27.681 29.5962H32.477L33.1974 34.9776L44.8923 34.985H44.9018V34.9776H44.9091H44.9164V23.6253L46.3501 23.4118L49.3183 34.985H49.3255H55.3602H55.3673L55.3649 34.9776H55.3756H55.3829L51.4878 21.4133C53.4618 19.9206 55.6905 16.1299 55.0973 12.5036V12.5012C55.1044 12.5503 58.7738 35 58.7738 35L65.9682 34.9776L70.8841 3.27732V34.9777H82.5502V28.6878H77.0125V20.6669H82.5502V14.2812H77.0125V6.38066H82.5499ZM28.4089 24.0502L30.1054 9.09856L31.8669 24.0502H28.4089ZM46.3702 17.1464C45.8946 17.3822 45.3988 17.5001 44.9161 17.5001V6.25056C44.9245 6.25056 44.9342 6.24828 44.9462 6.24828C45.4301 6.2458 49.038 6.39794 49.038 11.8139C49.038 14.647 47.8109 16.432 46.3702 17.1464ZM95 28.6829V34.9728H83.6196V0H89.7471V28.6829H95Z" fill="black"/>
</svg>
