<svg width="24" height="24" viewBox="0 0 24 24" fill="none" xmlns="http://www.w3.org/2000/svg">
<path d="M22 22L15.3333 15.3333L22 22ZM17.5556 9.77778C17.5556 10.7992 17.3544 11.8106 16.9635 12.7542C16.5726 13.6978 15.9997 14.5553 15.2775 15.2775C14.5553 15.9997 13.6978 16.5726 12.7542 16.9635C11.8106 17.3544 10.7992 17.5556 9.77778 17.5556C8.75639 17.5556 7.74499 17.3544 6.80135 16.9635C5.85771 16.5726 5.00029 15.9997 4.27806 15.2775C3.55582 14.5553 2.98292 13.6978 2.59205 12.7542C2.20118 11.8106 2 10.7992 2 9.77778C2 7.71498 2.81944 5.73667 4.27806 4.27806C5.73667 2.81944 7.71498 2 9.77778 2C11.8406 2 13.8189 2.81944 15.2775 4.27806C16.7361 5.73667 17.5556 7.71498 17.5556 9.77778Z" stroke="black" stroke-width="2" stroke-linecap="round" stroke-linejoin="round"/>
</svg>
