<svg width="24" height="24" viewBox="0 0 24 24" fill="none" xmlns="http://www.w3.org/2000/svg">
<path d="M19.2568 2.4834C18.4575 2.87321 17.4443 3.51335 16.3114 4.34253C13.0188 2.48161 8.66756 2.89509 5.77771 5.78498C2.88129 8.68136 2.47734 13.0313 4.33526 16.3186C3.50701 17.4504 2.86817 18.4624 2.47976 19.2607C2.11558 20.0093 1.70159 21.0748 2.309 21.6822C2.82637 22.1996 3.6586 21.9914 4.33171 21.7143C5.42508 21.2642 6.74 20.3625 7.68597 19.6633C10.9366 21.4929 15.2871 21.1325 18.2062 18.2134C21.1015 15.3181 21.5004 10.9708 19.6564 7.69387C19.8356 7.45155 20.0073 7.21345 20.1699 6.98062C20.9017 5.93317 21.421 5.04227 21.7136 4.33265C21.8575 3.98354 22.2955 2.92118 21.6828 2.30842C21.0753 1.70101 20.0073 2.11738 19.2568 2.4834ZM12.1457 4.38843C12.6503 4.39831 13.1467 4.45686 13.6295 4.56177L11.6782 6.51308C10.4341 7.75719 9.74895 9.41129 9.74895 11.1707C9.74895 12.6171 9.18568 13.977 8.16292 14.9998L6.20783 16.9549C5.3565 15.9637 4.81119 14.818 4.5545 13.6368L6.12479 12.0665C7.03869 11.1526 7.79518 10.103 8.37318 8.947C8.89477 7.90381 9.5774 6.95671 10.4021 6.13206L12.1457 4.38843ZM8.99144 15.8283C10.2355 14.5842 10.9207 12.9301 10.9207 11.1707C10.9207 9.72423 11.484 8.3644 12.5067 7.3416L14.8934 4.9549C15.817 5.3342 16.6599 5.89591 17.3776 6.61358C17.695 6.93101 17.9808 7.2718 18.2336 7.63196C16.8811 9.38087 15.1413 11.3356 13.2348 13.2421C11.3274 15.1494 9.37254 16.8892 7.62422 18.2406C7.42186 18.0986 7.2257 17.946 7.0363 17.7833L8.99144 15.8283ZM6.60627 6.61354C7.63695 5.58285 8.91313 4.88455 10.3045 4.57243L9.57346 5.30346C8.65956 6.21732 7.9031 7.26692 7.32507 8.42295C6.80347 9.46613 6.12084 10.4132 5.29619 11.2379L4.38112 12.153C4.3801 12.1018 4.37924 12.0505 4.37924 11.9992C4.37928 9.96234 5.17018 8.04966 6.60627 6.61354ZM6.64009 18.976C4.31003 20.6523 3.41687 20.8215 3.16951 20.8276C3.1824 20.495 3.53139 19.4604 5.0277 17.3607C5.25756 17.6583 5.50758 17.9433 5.77775 18.2135C6.05186 18.4876 6.34125 18.7408 6.64357 18.9734L6.64009 18.976ZM17.3776 17.3849C15.9415 18.821 14.0289 19.6119 11.992 19.6119C11.9406 19.6119 11.8894 19.6111 11.8382 19.6101L13.137 18.3113C13.679 17.7692 14.3499 17.3546 15.0772 17.1122C15.9761 16.8125 16.8054 16.3 17.4754 15.63L19.4188 13.6866C19.1066 15.078 18.4083 16.3542 17.3776 17.3849ZM19.6028 11.8455L16.6469 14.8014C16.1048 15.3435 15.4339 15.7581 14.7067 16.0005C13.8078 16.3002 12.9785 16.8127 12.3085 17.4827L10.3545 19.4367C9.78574 19.3131 9.23591 19.1253 8.71385 18.8766C10.4 17.5441 12.2449 15.8891 14.0634 14.0706C15.8812 12.2528 17.5362 10.4082 18.8696 8.72151C19.3292 9.68662 19.5813 10.7465 19.6028 11.8455ZM18.9721 6.644C18.9703 6.64647 18.9685 6.649 18.9667 6.6515C18.7339 6.34895 18.4805 6.05929 18.2062 5.78498C17.936 5.51481 17.651 5.26479 17.3534 5.03493C19.4564 3.53589 20.4934 3.184 20.8278 3.16971C20.8211 3.41879 20.6491 4.31382 18.9721 6.644Z" fill="black"/>
<path d="M14.4777 10.3421C14.9356 9.88418 14.9357 9.14292 14.4777 8.68495C14.0198 8.22703 13.2785 8.22695 12.8206 8.68495C12.3626 9.14284 12.3625 9.8841 12.8206 10.3421C13.2784 10.8 14.0197 10.8001 14.4777 10.3421Z" fill="black"/>
</svg>
