<svg width="24" height="24" viewBox="0 0 24 24" fill="none" xmlns="http://www.w3.org/2000/svg">
<path d="M12.2735 2H11.6722C7.60851 2 4.34369 5.01666 4.34369 8.72565V12.5566C4.34369 13.8121 5.12498 14.9379 6.3749 15.3167V17.7355C6.3749 20.1269 10.7119 22 11.5165 22H12.4292C13.2337 22 17.6251 20.1269 17.6251 17.7355V15.3167C18.875 14.938 19.6563 13.8119 19.6563 12.5566V8.72565C19.6564 5.01666 16.3372 2 12.2735 2ZM11.9729 12.7793C12.6658 12.7793 13.0465 14.5462 13.0465 15.1318C13.0465 15.6929 12.7244 15.7684 12.4092 15.7684C12.3473 15.7684 12.2806 15.7659 12.2102 15.763C12.0604 15.7569 11.8852 15.7569 11.7361 15.763C11.6655 15.766 11.5989 15.7684 11.5367 15.7684C11.3868 15.7684 11.2161 15.7543 11.0874 15.6495C10.9591 15.5452 10.8994 15.3806 10.8994 15.1318C10.8994 14.5462 11.2801 12.7793 11.9729 12.7793ZM7.58435 10.7548C7.85796 10.4249 8.24836 10.2263 8.68404 10.1969L9.37381 10.1498C10.2954 10.0889 11.0154 10.5626 11.0154 11.2033C11.0154 11.8164 10.3991 12.6102 9.61253 13.0103L9.01413 13.3145C8.80308 13.422 8.59092 13.4764 8.38436 13.4764C7.801 13.4764 7.37379 13.0524 7.29491 12.3962L7.24019 11.9391C7.18851 11.5057 7.31059 11.0852 7.58435 10.7548ZM16.6129 15.7889L15.1251 16.2939V17.1582C15.1251 17.18 15.1073 17.2025 15.1028 17.2232C15.0679 17.9752 14.3935 18.4064 13.2676 18.4064H10.6298C9.74949 18.4064 8.87508 17.9761 8.87508 17.1582V16.2939L7.36339 15.7889C7.19987 15.7339 7.10755 15.5569 7.16259 15.3932C7.21731 15.2297 7.39283 15.1412 7.55603 15.1966L9.27989 15.7731C9.40725 15.816 9.50005 15.9352 9.50005 16.0696V17.1585C9.50005 17.3452 9.61253 17.4828 9.78437 17.5811C9.80597 17.4296 9.95125 17.3126 10.1087 17.3126C10.2812 17.3126 10.4375 17.4526 10.4375 17.6251V17.7649C10.4375 17.7744 10.5575 17.7816 10.6297 17.7816H11.0625V17.6249C11.0625 17.4524 11.2025 17.3124 11.3749 17.3124C11.5474 17.3124 11.6874 17.4524 11.6874 17.6249V17.7816H12.3124V17.6249C12.3124 17.4524 12.4524 17.3124 12.6249 17.3124C12.7974 17.3124 12.9374 17.4524 12.9374 17.6249V17.7816H13.2674C13.3487 17.7816 13.406 17.7764 13.5623 17.7688V17.6251C13.5623 17.4526 13.6884 17.3126 13.8609 17.3126C14.0303 17.3126 14.1604 17.4475 14.1655 17.6158C14.3441 17.5227 14.4826 17.3795 14.4826 17.1587C14.4826 17.1395 14.4996 17.1208 14.4996 17.1024V16.0697C14.4996 15.9353 14.5697 15.8161 14.6971 15.7732L16.4057 15.1967C16.5695 15.1414 16.7505 15.2299 16.8052 15.3934C16.8609 15.5567 16.7766 15.7339 16.6129 15.7889ZM16.8972 11.939L16.8425 12.3959C16.7639 13.0522 16.3364 13.4763 15.7532 13.4763C15.5465 13.4763 15.3347 13.4219 15.1233 13.3143L14.525 13.0102C13.7383 12.61 13.1222 11.8164 13.1222 11.2031C13.1222 10.5625 13.8442 10.0892 14.7636 10.1497L15.4535 10.1967C15.8891 10.2263 16.2795 10.4247 16.5532 10.7548C16.8271 11.0852 16.9492 11.5057 16.8972 11.939Z" fill="black"/>
</svg>
